<svg width="605" height="448" viewBox="0 0 605 448" fill="none" xmlns="http://www.w3.org/2000/svg">
<path d="M224.308 310.773H206.423V342.211H163.1V310.773H98.3359V278.557L165.877 179.801H206.425V278.002H224.31V310.773H224.308ZM163.1 278.002V259.117C163.1 255.563 163.228 250.77 163.489 244.731C163.747 238.697 163.95 235.53 164.1 235.234H162.878C160.36 240.937 157.508 246.27 154.324 251.231L136.327 278.002H163.1Z" fill="#700C18"/>
<path d="M353.058 261.227C353.058 289.963 348.243 311.013 338.617 324.382C328.99 337.749 314.251 344.431 294.406 344.431C275.001 344.431 260.375 337.453 250.526 323.491C240.675 309.533 235.751 288.776 235.751 261.226C235.751 232.343 240.565 211.164 250.193 197.684C259.819 184.206 274.558 177.467 294.406 177.467C313.735 177.467 328.342 184.485 338.228 198.517C348.115 212.554 353.058 233.455 353.058 261.227ZM279.407 261.227C279.407 279.595 280.554 292.221 282.851 299.108C285.145 305.995 288.997 309.439 294.404 309.439C299.884 309.439 303.752 305.885 306.012 298.774C308.271 291.665 309.4 279.15 309.4 261.227C309.4 243.232 308.252 230.622 305.957 223.402C303.66 216.181 299.808 212.572 294.404 212.572C288.997 212.572 285.145 216.054 282.851 223.013C280.554 229.975 279.407 242.712 279.407 261.227Z" fill="#700C18"/>
<path d="M490.916 310.773H473.032V342.211H429.707V310.773H364.943V278.557L432.485 179.801H473.032V278.002H490.916V310.773ZM429.707 278.002V259.117C429.707 255.563 429.836 250.77 430.096 244.731C430.354 238.697 430.557 235.53 430.707 235.234H429.485C426.967 240.937 424.114 246.27 420.931 251.231L402.936 278.002H429.707Z" fill="#700C18"/>
<path d="M33.2402 215.838H98.8991" stroke="#101828" stroke-width="2.95006" stroke-miterlimit="10" stroke-linecap="round" stroke-linejoin="round"/>
<path d="M114.658 215.838H128.675" stroke="#101828" stroke-width="2.95006" stroke-miterlimit="10" stroke-linecap="round" stroke-linejoin="round"/>
<path d="M21.3486 197.357H138.891" stroke="#101828" stroke-width="2.95006" stroke-miterlimit="10" stroke-linecap="round" stroke-linejoin="round"/>
<path d="M11.6748 197.357H2" stroke="#101828" stroke-width="2.95006" stroke-miterlimit="10" stroke-linecap="round" stroke-linejoin="round"/>
<path d="M21.3486 179.801H60.3727" stroke="#101828" stroke-width="2.95006" stroke-miterlimit="10" stroke-linecap="round" stroke-linejoin="round"/>
<path d="M70.8223 179.801H152.778" stroke="#101828" stroke-width="2.95006" stroke-miterlimit="10" stroke-linecap="round" stroke-linejoin="round"/>
<path d="M497.354 362.449H567.616" stroke="#101828" stroke-width="2.95006" stroke-miterlimit="10" stroke-linecap="round" stroke-linejoin="round"/>
<path d="M579.043 362.449H589.206" stroke="#101828" stroke-width="2.95006" stroke-miterlimit="10" stroke-linecap="round" stroke-linejoin="round"/>
<path d="M511.385 343.969H603.464" stroke="#101828" stroke-width="2.95006" stroke-miterlimit="10" stroke-linecap="round" stroke-linejoin="round"/>
<path d="M504.369 343.969H497.354" stroke="#101828" stroke-width="2.95006" stroke-miterlimit="10" stroke-linecap="round" stroke-linejoin="round"/>
<path d="M497.354 326.412H539.681" stroke="#101828" stroke-width="2.95006" stroke-miterlimit="10" stroke-linecap="round" stroke-linejoin="round"/>
<path d="M547.257 326.412H579.043" stroke="#101828" stroke-width="2.95006" stroke-miterlimit="10" stroke-linecap="round" stroke-linejoin="round"/>
<path d="M232.717 310.15H214.833V341.588H171.509V310.15H106.745V277.934L174.286 179.178H214.834V277.379H232.719L232.717 310.15ZM171.508 277.379V258.494C171.508 254.94 171.636 250.147 171.897 244.108C172.154 238.074 172.358 234.907 172.508 234.611H171.285C168.768 240.314 165.915 245.647 162.732 250.608L144.735 277.379H171.508Z" stroke="#101828" stroke-width="4.45687" stroke-miterlimit="10"/>
<path d="M361.466 260.604C361.466 289.34 356.651 310.39 347.025 323.759C337.398 337.126 322.659 343.808 302.814 343.808C283.41 343.808 268.783 336.83 258.934 322.868C249.083 308.91 244.159 288.153 244.159 260.603C244.159 231.72 248.973 210.541 258.6 197.061C268.226 183.583 282.965 176.844 302.813 176.844C322.142 176.844 336.749 183.862 346.635 197.894C356.524 211.931 361.466 232.833 361.466 260.604ZM287.817 260.604C287.817 278.972 288.964 291.598 291.261 298.485C293.555 305.372 297.407 308.816 302.814 308.816C308.293 308.816 312.161 305.262 314.422 298.151C316.68 291.042 317.81 278.527 317.81 260.603C317.81 242.608 316.661 229.997 314.367 222.778C312.07 215.557 308.218 211.948 302.814 211.948C297.407 211.948 293.555 215.43 291.261 222.389C288.964 229.352 287.817 242.091 287.817 260.604Z" stroke="#101828" stroke-width="4.45687" stroke-miterlimit="10"/>
<path d="M499.325 310.15H481.44V341.588H438.117V310.15H373.353V277.934L440.894 179.178H481.441V277.379H499.326L499.325 310.15ZM438.117 277.379V258.494C438.117 254.94 438.245 250.147 438.505 244.108C438.763 238.074 438.966 234.907 439.116 234.611H437.894C435.376 240.314 432.523 245.647 429.341 250.608L411.345 277.379H438.117Z" stroke="#101828" stroke-width="4.45687" stroke-miterlimit="10"/>
<path d="M221.345 411.027V374.139H243.607V378.102H225.812V390.566H242.455V394.529H225.812V407.065H243.896V411.027H221.345ZM251.659 411.027V374.139H264.123C267.005 374.139 269.37 374.632 271.219 375.616C273.069 376.589 274.437 377.928 275.326 379.633C276.215 381.338 276.659 383.277 276.659 385.451C276.659 387.624 276.215 389.551 275.326 391.232C274.437 392.914 273.075 394.234 271.237 395.195C269.4 396.144 267.053 396.618 264.195 396.618H254.108V392.583H264.051C266.02 392.583 267.605 392.295 268.806 391.719C270.019 391.142 270.895 390.326 271.435 389.269C271.988 388.2 272.264 386.928 272.264 385.451C272.264 383.974 271.988 382.683 271.435 381.578C270.883 380.473 270.001 379.621 268.788 379.021C267.575 378.408 265.972 378.102 263.979 378.102H256.125V411.027H251.659ZM269.022 394.457L278.1 411.027H272.912L263.979 394.457H269.022ZM284.102 411.027V374.139H296.566C299.448 374.139 301.814 374.632 303.663 375.616C305.512 376.589 306.881 377.928 307.77 379.633C308.658 381.338 309.102 383.277 309.102 385.451C309.102 387.624 308.658 389.551 307.77 391.232C306.881 392.914 305.518 394.234 303.681 395.195C301.844 396.144 299.496 396.618 296.638 396.618H286.552V392.583H296.494C298.464 392.583 300.049 392.295 301.249 391.719C302.462 391.142 303.339 390.326 303.879 389.269C304.431 388.2 304.708 386.928 304.708 385.451C304.708 383.974 304.431 382.683 303.879 381.578C303.327 380.473 302.444 379.621 301.231 379.021C300.019 378.408 298.416 378.102 296.422 378.102H288.569V411.027H284.102ZM301.466 394.457L310.543 411.027H305.356L296.422 394.457H301.466ZM347.67 392.583C347.67 396.474 346.968 399.836 345.563 402.67C344.158 405.504 342.231 407.689 339.781 409.226C337.331 410.763 334.534 411.532 331.387 411.532C328.241 411.532 325.444 410.763 322.994 409.226C320.544 407.689 318.617 405.504 317.212 402.67C315.807 399.836 315.105 396.474 315.105 392.583C315.105 388.693 315.807 385.331 317.212 382.497C318.617 379.663 320.544 377.478 322.994 375.94C325.444 374.403 328.241 373.635 331.387 373.635C334.534 373.635 337.331 374.403 339.781 375.94C342.231 377.478 344.158 379.663 345.563 382.497C346.968 385.331 347.67 388.693 347.67 392.583ZM343.347 392.583C343.347 389.389 342.813 386.694 341.744 384.496C340.688 382.299 339.253 380.636 337.439 379.507C335.638 378.378 333.621 377.814 331.387 377.814C329.154 377.814 327.131 378.378 325.318 379.507C323.516 380.636 322.081 382.299 321.013 384.496C319.956 386.694 319.428 389.389 319.428 392.583C319.428 395.777 319.956 398.473 321.013 400.671C322.081 402.868 323.516 404.531 325.318 405.66C327.131 406.789 329.154 407.353 331.387 407.353C333.621 407.353 335.638 406.789 337.439 405.66C339.253 404.531 340.688 402.868 341.744 400.671C342.813 398.473 343.347 395.777 343.347 392.583ZM355.181 411.027V374.139H367.645C370.527 374.139 372.893 374.632 374.742 375.616C376.591 376.589 377.96 377.928 378.848 379.633C379.737 381.338 380.181 383.277 380.181 385.451C380.181 387.624 379.737 389.551 378.848 391.232C377.96 392.914 376.597 394.234 374.76 395.195C372.923 396.144 370.575 396.618 367.717 396.618H357.631V392.583H367.573C369.542 392.583 371.127 392.295 372.328 391.719C373.541 391.142 374.417 390.326 374.958 389.269C375.51 388.2 375.786 386.928 375.786 385.451C375.786 383.974 375.51 382.683 374.958 381.578C374.405 380.473 373.523 379.621 372.31 379.021C371.097 378.408 369.494 378.102 367.501 378.102H359.648V411.027H355.181ZM372.544 394.457L381.622 411.027H376.435L367.501 394.457H372.544Z" fill="#101828"/>
<path d="M528.016 211.831V196.773" stroke="#101828" stroke-width="2.95006" stroke-miterlimit="10" stroke-linecap="round" stroke-linejoin="round"/>
<path d="M517.505 216.186L506.859 205.539" stroke="#101828" stroke-width="2.95006" stroke-miterlimit="10" stroke-linecap="round" stroke-linejoin="round"/>
<path d="M513.153 226.695H498.096" stroke="#101828" stroke-width="2.95006" stroke-miterlimit="10" stroke-linecap="round" stroke-linejoin="round"/>
<path d="M517.505 237.205L506.859 247.852" stroke="#101828" stroke-width="2.95006" stroke-miterlimit="10" stroke-linecap="round" stroke-linejoin="round"/>
<path d="M528.016 241.559V256.616" stroke="#101828" stroke-width="2.95006" stroke-miterlimit="10" stroke-linecap="round" stroke-linejoin="round"/>
<path d="M538.526 237.205L549.174 247.852" stroke="#101828" stroke-width="2.95006" stroke-miterlimit="10" stroke-linecap="round" stroke-linejoin="round"/>
<path d="M542.881 226.695H557.938" stroke="#101828" stroke-width="2.95006" stroke-miterlimit="10" stroke-linecap="round" stroke-linejoin="round"/>
<path d="M538.526 216.186L549.174 205.539" stroke="#101828" stroke-width="2.95006" stroke-miterlimit="10" stroke-linecap="round" stroke-linejoin="round"/>
<path d="M55.7607 286.805V275.922" stroke="#101828" stroke-width="2.95006" stroke-miterlimit="10" stroke-linecap="round" stroke-linejoin="round"/>
<path d="M48.1625 289.953L40.4668 282.258" stroke="#101828" stroke-width="2.95006" stroke-miterlimit="10" stroke-linecap="round" stroke-linejoin="round"/>
<path d="M45.0162 297.551H34.1328" stroke="#101828" stroke-width="2.95006" stroke-miterlimit="10" stroke-linecap="round" stroke-linejoin="round"/>
<path d="M48.1625 305.148L40.4668 312.844" stroke="#101828" stroke-width="2.95006" stroke-miterlimit="10" stroke-linecap="round" stroke-linejoin="round"/>
<path d="M55.7607 308.295V319.178" stroke="#101828" stroke-width="2.95006" stroke-miterlimit="10" stroke-linecap="round" stroke-linejoin="round"/>
<path d="M63.3574 305.148L71.0531 312.844" stroke="#101828" stroke-width="2.95006" stroke-miterlimit="10" stroke-linecap="round" stroke-linejoin="round"/>
<path d="M66.5049 297.551H77.3896" stroke="#101828" stroke-width="2.95006" stroke-miterlimit="10" stroke-linecap="round" stroke-linejoin="round"/>
<path d="M63.3574 289.953L71.0531 282.258" stroke="#101828" stroke-width="2.95006" stroke-miterlimit="10" stroke-linecap="round" stroke-linejoin="round"/>
<path d="M350.279 61.998V51.1133" stroke="#101828" stroke-width="2.95006" stroke-miterlimit="10" stroke-linecap="round" stroke-linejoin="round"/>
<path d="M342.681 65.1449L334.985 57.4492" stroke="#101828" stroke-width="2.95006" stroke-miterlimit="10" stroke-linecap="round" stroke-linejoin="round"/>
<path d="M339.535 72.7422H328.651" stroke="#101828" stroke-width="2.95006" stroke-miterlimit="10" stroke-linecap="round" stroke-linejoin="round"/>
<path d="M342.681 80.3398L334.985 88.0355" stroke="#101828" stroke-width="2.95006" stroke-miterlimit="10" stroke-linecap="round" stroke-linejoin="round"/>
<path d="M350.279 83.4863V94.3697" stroke="#101828" stroke-width="2.95006" stroke-miterlimit="10" stroke-linecap="round" stroke-linejoin="round"/>
<path d="M357.876 80.3398L365.572 88.0355" stroke="#101828" stroke-width="2.95006" stroke-miterlimit="10" stroke-linecap="round" stroke-linejoin="round"/>
<path d="M361.023 72.7422H371.907" stroke="#101828" stroke-width="2.95006" stroke-miterlimit="10" stroke-linecap="round" stroke-linejoin="round"/>
<path d="M357.876 65.1449L365.572 57.4492" stroke="#101828" stroke-width="2.95006" stroke-miterlimit="10" stroke-linecap="round" stroke-linejoin="round"/>
<path d="M483.204 364.318H109.794V423.104H483.204V364.318Z" stroke="#101828" stroke-width="3.29911" stroke-miterlimit="10" stroke-linecap="round" stroke-linejoin="round"/>
<path d="M138.894 153.312V106.215H383.722V210.861" stroke="#101828" stroke-width="2.95006" stroke-miterlimit="10" stroke-linecap="round" stroke-linejoin="round"/>
<path d="M297.428 72.7441V131.71H459.782V158.537" stroke="#101828" stroke-width="2.95006" stroke-miterlimit="10" stroke-linecap="round" stroke-linejoin="round"/>
<path d="M144.735 159.155C144.735 162.382 142.119 164.997 138.893 164.997C135.666 164.997 133.051 162.38 133.051 159.155C133.051 155.929 135.667 153.312 138.893 153.312C142.12 153.312 144.735 155.927 144.735 159.155Z" stroke="#101828" stroke-width="2.95006" stroke-miterlimit="10" stroke-linecap="round" stroke-linejoin="round"/>
<path d="M297.427 72.7426C300.653 72.7426 303.269 70.1271 303.269 66.9006C303.269 63.6741 300.653 61.0586 297.427 61.0586C294.201 61.0586 291.585 63.6741 291.585 66.9006C291.585 70.1271 294.201 72.7426 297.427 72.7426Z" stroke="#101828" stroke-width="2.95006" stroke-miterlimit="10" stroke-linecap="round" stroke-linejoin="round"/>
<path d="M465.623 164.994C465.623 168.22 463.007 170.836 459.781 170.836C456.554 170.836 453.939 168.22 453.939 164.994C453.939 161.767 456.556 159.152 459.781 159.152C463.007 159.152 465.623 161.769 465.623 164.994Z" stroke="#101828" stroke-width="2.95006" stroke-miterlimit="10" stroke-linecap="round" stroke-linejoin="round"/>
<path d="M389.564 217.672C389.564 220.898 386.948 223.514 383.722 223.514C380.496 223.514 377.88 220.898 377.88 217.672C377.88 214.445 380.496 211.83 383.722 211.83C386.948 211.83 389.564 214.446 389.564 217.672Z" stroke="#101828" stroke-width="2.95006" stroke-miterlimit="10" stroke-linecap="round" stroke-linejoin="round"/>
<path d="M100.82 334.678L86.9971 348.501" stroke="#101828" stroke-width="2.95006" stroke-miterlimit="10" stroke-linecap="round" stroke-linejoin="round"/>
<path d="M86.9971 334.678L100.82 348.501" stroke="#101828" stroke-width="2.95006" stroke-miterlimit="10" stroke-linecap="round" stroke-linejoin="round"/>
<path d="M107.731 133.945L93.9082 147.769" stroke="#101828" stroke-width="2.95006" stroke-miterlimit="10" stroke-linecap="round" stroke-linejoin="round"/>
<path d="M93.9082 133.945L107.731 147.769" stroke="#101828" stroke-width="2.95006" stroke-miterlimit="10" stroke-linecap="round" stroke-linejoin="round"/>
<path d="M556.085 290.637L542.261 304.461" stroke="#101828" stroke-width="2.95006" stroke-miterlimit="10" stroke-linecap="round" stroke-linejoin="round"/>
<path d="M542.261 290.637L556.085 304.461" stroke="#101828" stroke-width="2.95006" stroke-miterlimit="10" stroke-linecap="round" stroke-linejoin="round"/>
<path d="M163.803 55.0525C159.394 55.0525 155.359 56.6389 152.226 59.2659C149.026 49.6334 139.958 42.6797 129.252 42.6797C117.267 42.6797 107.34 51.3943 105.4 62.8273C104.137 62.4659 102.807 62.2599 101.427 62.2599C93.457 62.2599 86.9971 68.7212 86.9971 76.6897C86.9971 84.0212 92.4694 90.061 99.5486 90.9844V91.1208H163.803C173.762 91.1208 181.837 83.0473 181.837 73.086C181.837 63.1274 173.762 55.0525 163.803 55.0525Z" stroke="#101828" stroke-width="3.08455" stroke-miterlimit="10" stroke-linecap="round" stroke-linejoin="round"/>
<path d="M498.166 146.792C501.369 146.792 504.3 147.944 506.577 149.852C508.901 142.855 515.489 137.803 523.267 137.803C531.974 137.803 539.186 144.134 540.595 152.44C541.513 152.177 542.479 152.028 543.481 152.028C549.271 152.028 553.965 156.721 553.965 162.512C553.965 167.838 549.99 172.226 544.846 172.896V172.994H498.168C490.932 172.994 485.066 167.127 485.066 159.893C485.066 152.658 490.93 146.792 498.166 146.792Z" stroke="#101828" stroke-width="2.95006" stroke-miterlimit="10" stroke-linecap="round" stroke-linejoin="round"/>
<path d="M562.525 394.623C559.839 394.623 557.381 395.59 555.471 397.19C553.522 391.322 547.997 387.084 541.474 387.084C534.171 387.084 528.123 392.394 526.942 399.36C526.173 399.14 525.362 399.015 524.521 399.015C519.665 399.015 515.729 402.951 515.729 407.807C515.729 412.274 519.062 415.954 523.376 416.516V416.6H562.523C568.592 416.6 573.512 411.681 573.512 405.613C573.512 399.543 568.593 394.623 562.525 394.623Z" stroke="#101828" stroke-width="2.95006" stroke-miterlimit="10" stroke-linecap="round" stroke-linejoin="round"/>
<path d="M31.1979 371.436C34.4006 371.436 37.3318 372.589 39.6083 374.497C41.9326 367.5 48.5207 362.447 56.2982 362.447C65.006 362.447 72.2175 368.779 73.6265 377.084C74.5445 376.821 75.5102 376.672 76.5127 376.672C82.3029 376.672 86.9964 381.366 86.9964 387.156C86.9964 392.483 83.0217 396.871 77.8781 397.54V397.638H31.1979C23.9619 397.638 18.0967 391.773 18.0967 384.537C18.0967 377.301 23.9619 371.436 31.1979 371.436Z" stroke="#101828" stroke-width="2.95006" stroke-miterlimit="10" stroke-linecap="round" stroke-linejoin="round"/>
<path d="M181.837 46.4018C181.837 46.4018 264.277 -20.812 376.289 10.1535C493.952 42.6808 517.505 126.58 517.505 126.58" stroke="#101828" stroke-width="2.95006" stroke-miterlimit="10" stroke-linecap="round" stroke-linejoin="round" stroke-dasharray="4.46 10.4"/>
<path d="M57.3605 241.758C25.4007 246.715 9.3341 314.545 45.2837 341.472" stroke="#101828" stroke-width="2.75064" stroke-miterlimit="10" stroke-linecap="round" stroke-linejoin="round" stroke-dasharray="4.16 9.7"/>
<path d="M459.782 437.472C459.782 437.472 514.53 461.405 538.529 428.016" stroke="#101828" stroke-width="2.95006" stroke-miterlimit="10" stroke-linecap="round" stroke-linejoin="round" stroke-dasharray="4.46 10.4"/>
<path d="M199.324 164.996V130.424" stroke="#101828" stroke-width="2.95006" stroke-miterlimit="10" stroke-linecap="round" stroke-linejoin="round"/>
<path d="M190.979 164.996V147.77" stroke="#101828" stroke-width="2.95006" stroke-miterlimit="10" stroke-linecap="round" stroke-linejoin="round"/>
<path d="M326.392 172.995V147.711" stroke="#101828" stroke-width="2.95006" stroke-miterlimit="10" stroke-linecap="round" stroke-linejoin="round"/>
<path d="M316.911 170.838V160.352" stroke="#101828" stroke-width="2.95006" stroke-miterlimit="10" stroke-linecap="round" stroke-linejoin="round"/>
<path d="M308.501 170.839V153.312" stroke="#101828" stroke-width="2.95006" stroke-miterlimit="10" stroke-linecap="round" stroke-linejoin="round"/>
<path d="M207.346 164.997V147.711" stroke="#101828" stroke-width="2.95006" stroke-miterlimit="10" stroke-linecap="round" stroke-linejoin="round"/>
<path d="M436.5 169.81V162.076" stroke="#101828" stroke-width="2.95006" stroke-miterlimit="10" stroke-linecap="round" stroke-linejoin="round"/>
<path d="M428.154 169.808V150.971" stroke="#101828" stroke-width="2.95006" stroke-miterlimit="10" stroke-linecap="round" stroke-linejoin="round"/>
<path d="M444.521 169.808V156.354" stroke="#101828" stroke-width="2.95006" stroke-miterlimit="10" stroke-linecap="round" stroke-linejoin="round"/>
</svg>
