<svg width="132" height="127" viewBox="0 0 132 127" fill="none" xmlns="http://www.w3.org/2000/svg">
<g filter="url(#filter0_i_8158_15487)">
<g clip-path="url(#clip0_8158_15487)">
<circle cx="65" cy="65" r="65" fill="#D9D9D9"/>
<circle cx="65" cy="65" r="65" fill="#D9D9D9"/>
<rect x="15.5" y="26.5" width="99" height="124" rx="20.5" fill="url(#paint0_linear_8158_15487)" fill-opacity="0.38" stroke="black" stroke-width="3"/>
<rect x="13.5" y="60.5" width="105" height="35" rx="5.5" fill="#D4D4D4" stroke="white"/>
<g filter="url(#filter1_d_8158_15487)">
<rect x="11" y="55" width="110" height="36" rx="6" fill="white"/>
</g>
<circle cx="29" cy="73" r="10" fill="#700C18"/>
<rect x="43" y="69" width="59" height="3" rx="1.5" fill="#D9D9D9"/>
<rect x="43" y="75" width="18" height="3" rx="1.5" fill="#D9D9D9"/>
<mask id="mask0_8158_15487" style="mask-type:alpha" maskUnits="userSpaceOnUse" x="21" y="68" width="13" height="11">
<path d="M32.0311 78.2266L27.9423 76.9655L26.9914 78.0414L26.905 77.9805L25.6881 76.2196L21.9355 75.5828L33.6663 68.0029L32.0311 78.2266Z" fill="#D9D9D9"/>
</mask>
<g mask="url(#mask0_8158_15487)">
</g>
<path d="M27.6152 71.5H26.6001C26.04 71.5 25.7598 71.5 25.5459 71.609C25.3577 71.7049 25.2049 71.8577 25.109 72.0459C25 72.2598 25 72.54 25 73.1001V75.9001C25 76.4602 25 76.74 25.109 76.9539C25.2049 77.1421 25.3577 77.2952 25.5459 77.3911C25.7596 77.5 26.0395 77.5 26.5985 77.5H31.4015C31.9605 77.5 32.24 77.5 32.4537 77.3911C32.6419 77.2952 32.7952 77.1421 32.8911 76.9539C33 76.7402 33 76.4607 33 75.9018V73.0985C33 72.5395 33 72.2596 32.8911 72.0459C32.7952 71.8577 32.6419 71.7049 32.4537 71.609C32.2398 71.5 31.9601 71.5 31.4001 71.5H30.3845M27.6152 71.5H30.3845M27.6152 71.5C27.5515 71.5 27.5 71.4483 27.5 71.3846V70C27.5 69.1716 28.1716 68.5 29 68.5C29.8284 68.5 30.5 69.1716 30.5 70V71.3846C30.5 71.4483 30.4482 71.5 30.3845 71.5" stroke="white" stroke-width="1.5" stroke-linecap="round" stroke-linejoin="round"/>
</g>
</g>
<defs>
<filter id="filter0_i_8158_15487" x="0" y="-12.2" width="132" height="139.2" filterUnits="userSpaceOnUse" color-interpolation-filters="sRGB">
<feFlood flood-opacity="0" result="BackgroundImageFix"/>
<feBlend mode="normal" in="SourceGraphic" in2="BackgroundImageFix" result="shape"/>
<feColorMatrix in="SourceAlpha" type="matrix" values="0 0 0 0 0 0 0 0 0 0 0 0 0 0 0 0 0 0 127 0" result="hardAlpha"/>
<feOffset dy="-14"/>
<feGaussianBlur stdDeviation="6.1"/>
<feComposite in2="hardAlpha" operator="arithmetic" k2="-1" k3="1"/>
<feColorMatrix type="matrix" values="0 0 0 0 0 0 0 0 0 0 0 0 0 0 0 0 0 0 0.1 0"/>
<feBlend mode="normal" in2="shape" result="effect1_innerShadow_8158_15487"/>
</filter>
<filter id="filter1_d_8158_15487" x="7" y="55" width="118" height="44" filterUnits="userSpaceOnUse" color-interpolation-filters="sRGB">
<feFlood flood-opacity="0" result="BackgroundImageFix"/>
<feColorMatrix in="SourceAlpha" type="matrix" values="0 0 0 0 0 0 0 0 0 0 0 0 0 0 0 0 0 0 127 0" result="hardAlpha"/>
<feOffset dy="4"/>
<feGaussianBlur stdDeviation="2"/>
<feComposite in2="hardAlpha" operator="out"/>
<feColorMatrix type="matrix" values="0 0 0 0 0 0 0 0 0 0 0 0 0 0 0 0 0 0 0.08 0"/>
<feBlend mode="normal" in2="BackgroundImageFix" result="effect1_dropShadow_8158_15487"/>
<feBlend mode="normal" in="SourceGraphic" in2="effect1_dropShadow_8158_15487" result="shape"/>
</filter>
<linearGradient id="paint0_linear_8158_15487" x1="17.5" y1="31.5" x2="93.5" y2="141.5" gradientUnits="userSpaceOnUse">
<stop stop-color="#707070"/>
<stop offset="0.245" stop-color="#707070" stop-opacity="0.6"/>
<stop offset="0.47" stop-color="white"/>
<stop offset="0.72" stop-color="#707070" stop-opacity="0.6"/>
<stop offset="1" stop-color="#707070"/>
<stop offset="1" stop-color="#D6D6D6"/>
</linearGradient>
<clipPath id="clip0_8158_15487">
<rect width="132" height="127" rx="63.5" fill="white"/>
</clipPath>
</defs>
</svg>
