<svg width="103" height="36" viewBox="0 0 103 36" fill="none" xmlns="http://www.w3.org/2000/svg">
<mask id="mask0_528_7165" style="mask-type:luminance" maskUnits="userSpaceOnUse" x="31" y="0" width="8" height="8">
<path d="M34.9296 7.29581C36.7693 7.29581 38.2776 5.82417 38.2776 4.1316C38.2776 2.43902 36.7693 0.967377 34.9296 0.967377C33.0899 0.967377 31.5444 2.40238 31.5444 4.1316C31.5444 5.86081 33.0527 7.29581 34.9296 7.29581Z" fill="white"/>
</mask>
<g mask="url(#mask0_528_7165)">
<path d="M103.234 -6.62329H-8.39014V40.0432H103.234V-6.62329Z" fill="white"/>
</g>
<mask id="mask1_528_7165" style="mask-type:luminance" maskUnits="userSpaceOnUse" x="31" y="9" width="8" height="19">
<path d="M38.2777 9.24634H31.4341V27.0909H38.2777V9.24634Z" fill="white"/>
</mask>
<g mask="url(#mask1_528_7165)">
<path d="M103.234 -6.6228H-8.39014V40.0437H103.234V-6.6228Z" fill="white"/>
</g>
<mask id="mask2_528_7165" style="mask-type:luminance" maskUnits="userSpaceOnUse" x="40" y="9" width="17" height="19">
<path d="M56.8584 21.4982H46.2621L56.8584 10.3868V9.28265H42.178L40.5959 14.9122H50.898L40.375 26.0969V27.1272H55.3129L56.8584 21.4982Z" fill="white"/>
</mask>
<g mask="url(#mask2_528_7165)">
<path d="M103.235 -6.62292H-8.38965V40.0436H103.235V-6.62292Z" fill="white"/>
</g>
<mask id="mask3_528_7165" style="mask-type:luminance" maskUnits="userSpaceOnUse" x="57" y="9" width="18" height="19">
<path d="M58.2179 14.9122H68.52L57.9976 26.0969V27.1272H72.9349L74.4804 21.4982H63.8841L74.4804 10.3868V9.28265H59.8001L58.2179 14.9122Z" fill="white"/>
</mask>
<g mask="url(#mask3_528_7165)">
<path d="M103.234 -6.62292H-8.39062V40.0436H103.234V-6.62292Z" fill="white"/>
</g>
<mask id="mask4_528_7165" style="mask-type:luminance" maskUnits="userSpaceOnUse" x="76" y="0" width="8" height="28">
<path d="M83.4959 0.783661H76.6523V27.09H83.4959V0.783661Z" fill="white"/>
</mask>
<g mask="url(#mask4_528_7165)">
<path d="M103.234 -6.62289H-8.39014V40.0436H103.234V-6.62289Z" fill="white"/>
</g>
<mask id="mask5_528_7165" style="mask-type:luminance" maskUnits="userSpaceOnUse" x="84" y="9" width="19" height="26">
<path d="M102.114 9.24646H97.5515C98.9865 11.4542 99.6487 12.9258 99.6487 14.2504C99.6487 14.7655 99.5383 15.2807 99.3173 15.7958C98.8388 17.0465 98.0295 18.7391 97.441 20.027L92.2167 9.24701H84.748L93.6517 27.2015L93.2104 28.0847C92.3272 29.7034 90.3037 30.6599 87.7652 30.7337C87.0291 30.8076 86.2569 30.7704 85.4841 30.6599L85.337 30.8808L88.3541 34.8544C90.7823 33.1985 93.2476 30.2924 94.793 27.3858L100.055 17.1942C101.563 14.3614 102.152 12.4479 102.152 10.4244C102.152 9.9831 102.152 9.65169 102.115 9.24701L102.114 9.24646Z" fill="white"/>
</mask>
<g mask="url(#mask5_528_7165)">
<path d="M103.235 -6.62283H-8.38965V40.0437H103.235V-6.62283Z" fill="white"/>
</g>
<mask id="mask6_528_7165" style="mask-type:luminance" maskUnits="userSpaceOnUse" x="0" y="1" width="11" height="27">
<path d="M4.54912 1.44613L2.53061 10.9311V1.44449H0.294434V27.1996H1.99248L10.0326 1.44613H4.54912Z" fill="white"/>
</mask>
<g mask="url(#mask6_528_7165)">
<path d="M103.234 -6.62283H-8.39014V40.0437H103.234V-6.62283Z" fill="white"/>
</g>
<mask id="mask7_528_7165" style="mask-type:luminance" maskUnits="userSpaceOnUse" x="2" y="1" width="26" height="27">
<path d="M12.987 1.44449H12.5555L2.79541 27.2001H9.96822L11.9255 17.8081V27.2001H12.987C21.597 27.2001 27.5202 22.3061 27.5202 14.3223C27.5202 6.33847 21.597 1.44504 12.987 1.44504V1.44449Z" fill="white"/>
</mask>
<g mask="url(#mask7_528_7165)">
<path d="M103.234 -6.62283H-8.39014V40.0437H103.234V-6.62283Z" fill="white"/>
</g>
<path d="M33.3324 31.7108C32.2758 31.7108 31.4971 32.4557 31.4971 33.4635C31.4971 34.4714 32.2758 35.2163 33.3324 35.2163C34.3889 35.2163 35.1677 34.4764 35.1677 33.4635C35.1677 32.4507 34.3889 31.7108 33.3324 31.7108ZM33.3324 34.6612C32.6461 34.6612 32.1347 34.1597 32.1347 33.4635C32.1347 32.7674 32.6461 32.2659 33.3324 32.2659C34.0187 32.2659 34.53 32.7674 34.53 33.4635C34.53 34.1597 34.0187 34.6612 33.3324 34.6612Z" fill="white"/>
<path d="M39.6029 34.0672L37.7238 31.7594H37.2026V35.1675H37.8304V32.8597L39.7095 35.1675H40.2307V31.7594H39.6029V34.0672Z" fill="white"/>
<path d="M43.1415 31.7594H42.5088V35.1675H44.9232V34.6316H43.1415V31.7594Z" fill="white"/>
<path d="M47.4213 31.7594H46.7886V35.167H47.4213V31.7594Z" fill="white"/>
<path d="M52.1043 34.0672L50.2253 31.7594H49.7041V35.1675H50.3325V32.8597L52.2115 35.1675H52.7321V31.7594H52.1043V34.0672Z" fill="white"/>
<path d="M55.644 33.697H57.2896V33.1764H55.644V32.2904H57.4985V31.7594H55.0107V35.1675H57.5668V34.6365H55.644V33.697Z" fill="white"/>
<path d="M62.7563 32.699C62.7563 32.4409 62.9706 32.2364 63.4962 32.2364C63.7931 32.2364 64.1289 32.3239 64.4357 32.5043L64.6353 32.0127C64.3384 31.818 63.9102 31.7108 63.5011 31.7108C62.5665 31.7108 62.1285 32.1784 62.1285 32.7285C62.1285 33.994 64.1535 33.5122 64.1535 34.2472C64.1535 34.5004 63.9293 34.6902 63.3989 34.6902C62.9799 34.6902 62.5468 34.5343 62.2745 34.3156L62.0552 34.8072C62.3374 35.0506 62.8684 35.2163 63.3989 35.2163C64.3335 35.2163 64.7764 34.7487 64.7764 34.2035C64.7764 32.9522 62.7563 33.4247 62.7563 32.699Z" fill="white"/>
<path d="M66.2803 32.2953H67.4101V35.1675H68.0429V32.2953H69.1721V31.7594H66.2803V32.2953Z" fill="white"/>
<path d="M72.5555 31.7108C71.499 31.7108 70.7202 32.4557 70.7202 33.4635C70.7202 34.4714 71.499 35.2163 72.5555 35.2163C73.6121 35.2163 74.3908 34.4764 74.3908 33.4635C74.3908 32.4507 73.6121 31.7108 72.5555 31.7108ZM72.5555 34.6612C71.8692 34.6612 71.3579 34.1597 71.3579 33.4635C71.3579 32.7674 71.8692 32.2659 72.5555 32.2659C73.2419 32.2659 73.7532 32.7674 73.7532 33.4635C73.7532 34.1597 73.2419 34.6612 72.5555 34.6612Z" fill="white"/>
<path d="M79.2788 32.9718C79.2788 32.2171 78.7238 31.7594 77.828 31.7594H76.4258V35.167H77.0585V34.1739H77.8274C77.8712 34.1739 77.9149 34.1739 77.9587 34.1689L78.6548 35.167H79.3362L78.5526 34.0475C79.0152 33.8676 79.2777 33.4875 79.2777 32.9718H79.2788ZM77.7984 33.6532H77.0585V32.2948H77.7984C78.3535 32.2948 78.6406 32.5431 78.6406 32.9713C78.6406 33.3995 78.3535 33.6527 77.7984 33.6527V33.6532Z" fill="white"/>
<path d="M81.9804 33.697H83.6259V33.1764H81.9804V32.2904H83.8354V31.7594H81.3477V35.1675H83.9032V34.6365H81.9804V33.697Z" fill="white"/>
</svg>
