<svg width="164" height="55" viewBox="0 0 164 55" fill="none" xmlns="http://www.w3.org/2000/svg">
<mask id="mask0_5283_24610" style="mask-type:luminance" maskUnits="userSpaceOnUse" x="50" y="0" width="12" height="11">
<path d="M55.969 10.4051C58.908 10.4051 61.3175 8.05405 61.3175 5.35002C61.3175 2.64599 58.908 0.294922 55.969 0.294922C53.03 0.294922 50.561 2.58745 50.561 5.35002C50.561 8.11259 52.9706 10.4051 55.969 10.4051Z" fill="white"/>
</mask>
<g mask="url(#mask0_5283_24610)">
<path d="M165.09 -11.8359H-13.2358V62.7176H165.09V-11.8359Z" fill="#700C18"/>
</g>
<mask id="mask1_5283_24610" style="mask-type:luminance" maskUnits="userSpaceOnUse" x="50" y="13" width="12" height="30">
<path d="M61.3197 13.5156H50.3867V42.0237H61.3197V13.5156Z" fill="white"/>
</mask>
<g mask="url(#mask1_5283_24610)">
<path d="M165.09 -11.8379H-13.2354V62.7156H165.09V-11.8379Z" fill="#700C18"/>
</g>
<mask id="mask2_5283_24610" style="mask-type:luminance" maskUnits="userSpaceOnUse" x="64" y="13" width="28" height="30">
<path d="M91.0019 33.0856H74.0739L91.0019 15.3343V13.5703H67.5494L65.0219 22.5639H81.4799L64.6689 40.4324V42.0784H88.533L91.0019 33.0856Z" fill="white"/>
</mask>
<g mask="url(#mask2_5283_24610)">
<path d="M165.09 -11.8398H-13.2354V62.7137H165.09V-11.8398Z" fill="#700C18"/>
</g>
<mask id="mask3_5283_24610" style="mask-type:luminance" maskUnits="userSpaceOnUse" x="92" y="13" width="28" height="30">
<path d="M93.1763 22.5639H109.634L92.8242 40.4324V42.0784H116.687L119.156 33.0856H102.228L119.156 15.3343V13.5703H95.7038L93.1763 22.5639Z" fill="white"/>
</mask>
<g mask="url(#mask3_5283_24610)">
<path d="M165.091 -11.8398H-13.2349V62.7137H165.091V-11.8398Z" fill="#700C18"/>
</g>
<mask id="mask4_5283_24610" style="mask-type:luminance" maskUnits="userSpaceOnUse" x="122" y="0" width="12" height="43">
<path d="M133.558 0H122.625V42.0265H133.558V0Z" fill="white"/>
</mask>
<g mask="url(#mask4_5283_24610)">
<path d="M165.09 -11.8379H-13.2358V62.7156H165.09V-11.8379Z" fill="#700C18"/>
</g>
<mask id="mask5_5283_24610" style="mask-type:luminance" maskUnits="userSpaceOnUse" x="135" y="13" width="29" height="42">
<path d="M163.299 13.5156H156.011C158.304 17.0427 159.362 19.3937 159.362 21.5098C159.362 22.3328 159.185 23.1558 158.832 23.9788C158.068 25.9769 156.775 28.6809 155.835 30.7384L147.489 13.5165H135.557L149.781 42.2002L149.076 43.6112C147.665 46.1973 144.433 47.7253 140.377 47.8433C139.201 47.9612 137.968 47.9018 136.733 47.7253L136.498 48.0783L141.318 54.4264C145.197 51.7809 149.136 47.1382 151.605 42.4946L160.01 26.2128C162.42 21.6871 163.36 18.6301 163.36 15.3975C163.36 14.6925 163.36 14.163 163.302 13.5165L163.299 13.5156Z" fill="white"/>
</mask>
<g mask="url(#mask5_5283_24610)">
<path d="M165.091 -11.8379H-13.2349V62.7156H165.091V-11.8379Z" fill="#700C18"/>
</g>
<mask id="mask6_5283_24610" style="mask-type:luminance" maskUnits="userSpaceOnUse" x="0" y="1" width="17" height="42">
<path d="M7.43624 1.05926L4.21156 16.2123V1.05664H0.63916V42.2025H3.35188L16.1964 1.05926H7.43624Z" fill="white"/>
</mask>
<g mask="url(#mask6_5283_24610)">
<path d="M165.09 -11.8359H-13.2354V62.7176H165.09V-11.8359Z" fill="#700C18"/>
</g>
<mask id="mask7_5283_24610" style="mask-type:luminance" maskUnits="userSpaceOnUse" x="4" y="1" width="41" height="42">
<path d="M20.9168 1.05664H20.2275L4.63525 42.2034H16.0942L19.221 27.1988V42.2034H20.9168C34.6717 42.2034 44.1343 34.3848 44.1343 21.63C44.1343 8.87518 34.6717 1.05751 20.9168 1.05751V1.05664Z" fill="white"/>
</mask>
<g mask="url(#mask7_5283_24610)">
<path d="M165.091 -11.8359H-13.2349V62.7176H165.091V-11.8359Z" fill="#700C18"/>
</g>
<path d="M53.4193 49.4004C51.7314 49.4004 50.4873 50.5903 50.4873 52.2005C50.4873 53.8107 51.7314 55.0007 53.4193 55.0007C55.1072 55.0007 56.3513 53.8186 56.3513 52.2005C56.3513 50.5825 55.1072 49.4004 53.4193 49.4004ZM53.4193 54.1139C52.3229 54.1139 51.506 53.3127 51.506 52.2005C51.506 51.0883 52.3229 50.2872 53.4193 50.2872C54.5158 50.2872 55.3326 51.0883 55.3326 52.2005C55.3326 53.3127 54.5158 54.1139 53.4193 54.1139Z" fill="#700C18"/>
<path d="M63.437 53.1654L60.4351 49.4785H59.6025V54.9233H60.6055V51.2364L63.6074 54.9233H64.44V49.4785H63.437V53.1654Z" fill="#700C18"/>
<path d="M69.0904 49.4785H68.0796V54.9233H71.9368V54.0671H69.0904V49.4785Z" fill="#700C18"/>
<path d="M75.9268 49.4785H74.916V54.9224H75.9268V49.4785Z" fill="#700C18"/>
<path d="M83.4092 53.1654L80.4073 49.4785H79.5747V54.9233H80.5785V51.2364L83.5804 54.9233H84.4122V49.4785H83.4092V53.1654Z" fill="#700C18"/>
<path d="M89.063 52.574H91.6918V51.7422H89.063V50.3269H92.0255V49.4785H88.0513V54.9233H92.1348V54.0749H89.063V52.574Z" fill="#700C18"/>
<path d="M100.426 50.9791C100.426 50.5668 100.768 50.24 101.608 50.24C102.082 50.24 102.619 50.3798 103.109 50.6681L103.428 49.8827C102.953 49.5716 102.269 49.4004 101.616 49.4004C100.123 49.4004 99.4227 50.1474 99.4227 51.0263C99.4227 53.048 102.658 52.2783 102.658 53.4525C102.658 53.857 102.3 54.1602 101.452 54.1602C100.783 54.1602 100.091 53.9112 99.656 53.5617L99.3057 54.3472C99.7565 54.7359 100.605 55.0007 101.452 55.0007C102.945 55.0007 103.653 54.2537 103.653 53.3826C103.653 51.3836 100.426 52.1385 100.426 50.9791Z" fill="#700C18"/>
<path d="M106.056 50.3347H107.861V54.9233H108.872V50.3347H110.676V49.4785H106.056V50.3347Z" fill="#700C18"/>
<path d="M116.081 49.4004C114.393 49.4004 113.149 50.5903 113.149 52.2005C113.149 53.8107 114.393 55.0007 116.081 55.0007C117.769 55.0007 119.013 53.8186 119.013 52.2005C119.013 50.5825 117.769 49.4004 116.081 49.4004ZM116.081 54.1139C114.984 54.1139 114.168 53.3127 114.168 52.2005C114.168 51.0883 114.984 50.2872 116.081 50.2872C117.177 50.2872 117.994 51.0883 117.994 52.2005C117.994 53.3127 117.177 54.1139 116.081 54.1139Z" fill="#700C18"/>
<path d="M126.822 51.4155C126.822 50.2098 125.935 49.4785 124.504 49.4785H122.264V54.9224H123.274V53.3358H124.503C124.573 53.3358 124.643 53.3358 124.713 53.3279L125.825 54.9224H126.913L125.661 53.134C126.4 52.8465 126.82 52.2393 126.82 51.4155H126.822ZM124.457 52.5041H123.274V50.3338H124.457C125.343 50.3338 125.802 50.7305 125.802 51.4146C125.802 52.0987 125.343 52.5032 124.457 52.5032V52.5041Z" fill="#700C18"/>
<path d="M131.137 52.574H133.766V51.7422H131.137V50.3269H134.101V49.4785H130.126V54.9233H134.209V54.0749H131.137V52.574Z" fill="#700C18"/>
</svg>
