<svg width="165" height="165" viewBox="0 0 165 165" fill="none" xmlns="http://www.w3.org/2000/svg">
<rect x="11" y="11" width="143" height="143" rx="71.5" fill="#FFE3E6"/>
<rect x="11" y="11" width="143" height="143" rx="71.5" stroke="#FFF7F8" stroke-width="22"/>
<rect x="51" y="52" width="62" height="62" rx="31" fill="#700C18"/>
<path fill-rule="evenodd" clip-rule="evenodd" d="M82.0002 55.875C96.9784 55.875 109.125 68.022 109.125 83.0002C109.125 97.9784 96.9784 110.125 82.0002 110.125C67.022 110.125 54.875 97.9784 54.875 83.0002C54.875 68.022 67.022 55.875 82.0002 55.875ZM79.0942 85.3343V71.3733C79.0942 69.7728 80.3997 68.4673 82.0002 68.4673C83.6007 68.4673 84.9062 69.785 84.9062 71.3733V85.3343C84.9062 86.9227 83.6006 88.2403 82.0002 88.2403C80.3997 88.2403 79.0942 86.9348 79.0942 85.3343ZM81.9876 91.3571C83.8064 91.3571 85.2815 92.8322 85.2815 94.6508C85.2815 96.4696 83.8064 97.9447 81.9876 97.9447C80.169 97.9447 78.6939 96.4696 78.6939 94.6508C78.6939 92.8322 80.169 91.3571 81.9876 91.3571Z" fill="#FFE3E6"/>
</svg>
