<svg width="575" height="536" viewBox="0 0 575 536" fill="none" xmlns="http://www.w3.org/2000/svg">
<mask id="mask0_5391_17101" style="mask-type:luminance" maskUnits="userSpaceOnUse" x="0" y="0" width="203" height="536">
<path d="M8 1.48303H39.1924C43.3344 1.4832 46.6924 4.841 46.6924 8.98303V123.03C46.6926 133.215 61.345 134.782 63.5 124.828L88.9141 7.4303C89.6611 3.97962 92.7135 1.51724 96.2441 1.51721H194.58C199.654 1.51721 203.264 6.45058 201.729 11.2867L37.1309 529.575C36.1418 532.689 33.25 534.804 29.9824 534.804H8C3.85787 534.804 0.5 531.446 0.5 527.304V8.98303C0.5 4.8409 3.85787 1.48304 8 1.48303Z" fill="white" stroke="white"/>
</mask>
<g mask="url(#mask0_5391_17101)">
<path d="M-175.262 -165.882H2164.45C2168.59 -165.882 2171.95 -162.524 2171.95 -158.382V793.773C2171.95 797.915 2168.59 801.273 2164.45 801.273H-175.262C-179.404 801.273 -182.762 797.915 -182.762 793.773V-158.382C-182.762 -162.525 -179.404 -165.882 -175.262 -165.882Z" fill="#A21F35" stroke="black"/>
</g>
<mask id="mask1_5391_17101" style="mask-type:luminance" maskUnits="userSpaceOnUse" x="56" y="0" width="519" height="536">
<path d="M262.468 1.48425H267.771C267.804 1.49119 267.838 1.49596 267.873 1.49597C358.634 1.49704 435.186 26.8518 489.038 72.8417C542.882 118.824 574.075 185.47 574.075 268.15C574.075 350.832 542.881 417.481 489.036 463.467C435.183 509.459 358.63 534.817 267.867 534.817H253.466C249.324 534.817 245.966 531.459 245.966 527.317V416.782C245.966 406.575 231.267 405.034 229.15 415.019L205.015 528.873C204.28 532.338 201.22 534.817 197.678 534.817H64.4424C59.1771 534.817 55.5509 529.533 57.4443 524.62L257.896 4.62195C258.579 2.84965 260.218 1.6429 262.09 1.4989L262.468 1.48425Z" fill="white" stroke="white"/>
</mask>
<g mask="url(#mask1_5391_17101)">
<path d="M-175.261 -165.881H2164.45C2168.6 -165.881 2171.95 -162.523 2171.95 -158.381V793.774C2171.95 797.916 2168.6 801.274 2164.45 801.274H-175.261C-179.403 801.274 -182.761 797.916 -182.761 793.774V-158.381C-182.761 -162.523 -179.403 -165.881 -175.261 -165.881Z" fill="#A21F35" stroke="black"/>
</g>
</svg>
