<svg width="257" height="256" viewBox="0 0 257 256" fill="none" xmlns="http://www.w3.org/2000/svg">
<g opacity="0.39" clip-path="url(#clip0_965_6995)">
<path d="M256.5 42.6667V213.333C256.5 236.8 237.3 256 213.833 256H43.1667C19.7 256 0.5 236.8 0.5 213.333V42.6667C0.5 19.2 19.7 0 43.1667 0H213.833C237.3 0 256.5 19.2 256.5 42.6667Z" fill="#E9E9F4"/>
<path d="M256.5 172.8V213.333C256.5 236.8 237.3 256 213.833 256H43.1667C19.7 256 0.5 236.8 0.5 213.333V172.8C0.5 166.4 5.83333 161.066 12.2333 161.066H75.1667C81.5667 161.066 86.9 166.4 86.9 172.8V178.133C86.9 184.533 92.2333 189.866 98.6333 189.866H159.433C165.833 189.866 171.167 184.533 171.167 178.133V172.8C171.167 166.4 176.5 161.066 182.9 161.066H245.833C251.167 161.066 256.5 166.4 256.5 172.8Z" fill="#D5D5E2"/>
<path d="M156.229 93.8649L144.496 82.1316L156.229 70.3982C160.496 66.1316 160.496 58.6649 156.229 54.3982C151.963 50.1316 144.496 50.1316 140.229 54.3982L128.496 67.1982L116.762 55.4649C112.496 51.1982 105.029 51.1982 100.763 55.4649C96.4958 59.7316 96.4958 67.1982 100.763 71.4649L112.496 83.1982L100.763 93.8649C96.4958 98.1316 96.4958 105.598 100.763 109.865C105.029 114.132 112.496 114.132 116.762 109.865L128.496 99.1982L140.229 110.932C144.496 115.198 151.963 115.198 156.229 110.932C160.496 105.598 160.496 98.1316 156.229 93.8649Z" fill="#BEBECE"/>
</g>
<defs>
<clipPath id="clip0_965_6995">
<rect width="256" height="256" fill="white" transform="translate(0.5)"/>
</clipPath>
</defs>
</svg>
